<svg xmlns="http://www.w3.org/2000/svg" xmlns:xlink="http://www.w3.org/1999/xlink" width="208" zoomAndPan="magnify" viewBox="0 0 156 72" height="96" preserveAspectRatio="xMidYMid meet" version="1.0"><path fill="#ffffff" d="M 137.171875 10.148438 L 18.828125 10.148438 C 14.964844 10.148438 11.835938 14.703125 11.835938 20.320312 L 11.835938 99.328125 C 11.835938 104.945312 14.964844 109.5 18.828125 109.5 L 137.171875 109.5 C 141.035156 109.5 144.164062 104.945312 144.164062 99.328125 L 144.164062 20.320312 C 144.164062 14.703125 141.035156 10.148438 137.171875 10.148438 Z M 137.171875 10.148438 " fill-opacity="0.05" fill-rule="nonzero"/><path stroke-linecap="butt" transform="matrix(0.75, 0, 0, 0.75, 0, 0.000002)" fill="none" stroke-linejoin="miter" d="M 182.536466 14.24479 L 24.744793 14.24479 C 19.791667 14.24479 15.781251 20.473957 15.781251 28.161457 L 15.781251 140.625003 C 15.781251 148.312504 19.791667 154.546879 24.744793 154.546879 L 182.536466 154.546879 C 187.489591 154.546879 191.505216 148.312504 191.505216 140.625003 L 191.505216 28.161457 C 191.505216 20.473957 187.489591 14.24479 182.536466 14.24479 Z M 182.536466 14.24479 " stroke="#ffffff" stroke-width="1" stroke-opacity="0.1" stroke-miterlimit="4"/><path fill="#ffffff" d="M 29.316406 21.898438 C 29.316406 18.949219 26.910156 16.558594 23.9375 16.558594 C 20.96875 16.558594 18.558594 18.949219 18.558594 21.898438 C 18.558594 24.851562 20.96875 27.242188 23.9375 27.242188 C 26.910156 27.242188 29.316406 24.851562 29.316406 21.898438 Z M 29.316406 21.898438 " fill-opacity="0.2" fill-rule="nonzero"/><path stroke-linecap="butt" transform="matrix(0.75, 0, 0, 0.75, 0, 0.000002)" fill="none" stroke-linejoin="miter" d="M 38.729168 29.197915 C 38.729168 25.46354 35.682293 22.43229 31.916668 22.43229 C 28.156251 22.43229 25.104168 25.46354 25.104168 29.197915 C 25.104168 32.937499 28.156251 35.96354 31.916668 35.96354 C 35.682293 35.96354 38.729168 32.937499 38.729168 29.197915 Z M 38.729168 29.197915 " stroke="#ffffff" stroke-width="1" stroke-opacity="0.1" stroke-miterlimit="4"/><path fill="#ffffff" d="M 123.457031 33.652344 L 20.710938 33.652344 C 19.523438 33.652344 18.558594 34.609375 18.558594 35.789062 C 18.558594 36.96875 19.523438 37.925781 20.710938 37.925781 L 123.457031 37.925781 C 124.644531 37.925781 125.605469 36.96875 125.605469 35.789062 C 125.605469 34.609375 124.644531 33.652344 123.457031 33.652344 Z M 123.457031 33.652344 " fill-opacity="0.2" fill-rule="nonzero"/><path fill="#ffffff" d="M 57.828125 19.761719 L 36.308594 19.761719 C 35.121094 19.761719 34.160156 20.71875 34.160156 21.898438 C 34.160156 23.078125 35.121094 24.035156 36.308594 24.035156 L 57.828125 24.035156 C 59.015625 24.035156 59.980469 23.078125 59.980469 21.898438 C 59.980469 20.71875 59.015625 19.761719 57.828125 19.761719 Z M 57.828125 19.761719 " fill-opacity="0.2" fill-rule="nonzero"/><path fill="#ffffff" d="M 73.964844 19.761719 L 65.359375 19.761719 C 64.171875 19.761719 63.207031 20.71875 63.207031 21.898438 C 63.207031 23.078125 64.171875 24.035156 65.359375 24.035156 L 73.964844 24.035156 C 75.152344 24.035156 76.117188 23.078125 76.117188 21.898438 C 76.117188 20.71875 75.152344 19.761719 73.964844 19.761719 Z M 73.964844 19.761719 " fill-opacity="0.2" fill-rule="nonzero"/><path fill="#ffffff" d="M 63.207031 42.199219 L 20.710938 42.199219 C 19.523438 42.199219 18.558594 43.152344 18.558594 44.335938 C 18.558594 45.515625 19.523438 46.472656 20.710938 46.472656 L 63.207031 46.472656 C 64.394531 46.472656 65.359375 45.515625 65.359375 44.335938 C 65.359375 43.152344 64.394531 42.199219 63.207031 42.199219 Z M 63.207031 42.199219 " fill-opacity="0.2" fill-rule="nonzero"/></svg>